<svg width="242" height="30" viewBox="0 0 242 30" fill="none" xmlns="http://www.w3.org/2000/svg">
<path d="M205.141 0.16272H234.79C238.58 0.16272 242 3.64049 242 7.43322L241.997 29.0321L210.49 29.0426V21.8115L234.784 21.8167V9.8401C234.784 8.42274 233.582 7.38597 232.167 7.38597L210.49 7.39122C210.49 4.25992 208.227 0.965887 205.141 0.16272Z" fill="#36B0C9"/>
<path opacity="0.35" d="M225.215 0.16272H205.015V7.38597H225.215V0.16272Z" fill="url(#paint0_linear_194_16717)"/>
<path d="M205.939 0.16272H177.057V29.0374L184.238 29.0426L213.144 29.0321L213.149 7.43322C213.149 3.64049 209.729 0.16272 205.939 0.16272ZM205.931 21.8167L184.275 21.8141V7.38597H203.312C204.727 7.38597 205.929 8.42274 205.929 9.8401L205.931 21.8167Z" fill="#65BAAF"/>
<path opacity="0.35" d="M227.286 21.8141H213.149V29.0032H227.286V21.8141Z" fill="url(#paint1_linear_194_16717)"/>
<path opacity="0.35" d="M197.274 21.8141H184.279V29.0426H197.274V21.8141Z" fill="url(#paint2_linear_194_16717)"/>
<path d="M2.4902 28.9508C1.56367 28.9508 0.75525 28.9115 0.00195312 28.8852V19.9716C0.702756 19.9454 1.78939 19.906 2.88915 19.906C5.65562 19.906 7.41681 21.137 7.41681 24.2762C7.41681 27.3471 5.40364 28.9508 2.4902 28.9508ZM2.76842 21.3496C2.37208 21.3496 1.99937 21.3627 1.72115 21.389V27.4127C1.96 27.4521 2.31696 27.4783 2.6608 27.4783C4.34325 27.4783 5.56113 26.5256 5.56113 24.4074C5.56113 22.4887 4.80783 21.3496 2.76842 21.3496Z" fill="#201751"/>
<path d="M12.2878 29.0427C9.46624 29.0427 8.83105 27.5072 8.83105 25.7985V19.9585H10.5529V25.6909C10.5529 26.8169 10.923 27.6122 12.4059 27.6122C13.7314 27.6122 14.2852 27.0558 14.2852 25.5334V19.9585H15.9939V25.4284C15.9966 27.8642 14.6448 29.0427 12.2878 29.0427Z" fill="#201751"/>
<path d="M20.6719 28.9246C20.1417 28.9246 19.1758 28.8984 18.0498 28.8984V19.9743C18.8057 19.9349 19.9291 19.9087 21.0157 19.9087C22.9371 19.9087 24.0079 20.6909 24.0079 22.1213C24.0079 23.0085 23.5171 23.7775 22.6562 24.1214V24.1476C23.7166 24.3734 24.2573 25.2474 24.2573 26.1477C24.2599 27.4417 23.3728 28.9246 20.6719 28.9246ZM20.7375 21.2972C20.3674 21.2972 20.0761 21.3103 19.7716 21.3234V23.6542C19.9842 23.6673 20.1942 23.6673 20.4724 23.6673C21.6509 23.6673 22.1811 23.1896 22.1811 22.3969C22.1811 21.7329 21.7953 21.2972 20.7375 21.2972ZM20.5249 24.9508C20.3937 24.9508 19.9554 24.9508 19.769 24.9639V27.4679C19.9816 27.4942 20.3254 27.5204 20.7218 27.5204C21.8478 27.5204 22.4174 26.9902 22.4174 26.1818C22.42 25.3078 21.6509 24.9508 20.5249 24.9508Z" fill="#201751"/>
<path d="M31.0136 28.8983L30.3916 27.0714H27.0162L26.3941 28.8983H24.6592L27.7852 19.9611H29.7328L32.9245 28.8983H31.0136ZM29.0661 23.1632C28.906 22.7275 28.7879 22.3154 28.696 21.9322H28.6829C28.5779 22.3154 28.4703 22.7275 28.3259 23.1632L27.4388 25.7066H29.9559L29.0661 23.1632Z" fill="#201751"/>
<path d="M33.8584 28.8983V19.9585H35.5802V28.8957H33.8584V28.8983Z" fill="#201751"/>
<path d="M44.0288 29.0033C40.9027 29.0033 39.8975 26.9377 39.8975 24.7119C39.8975 21.8772 41.3804 19.8798 44.3726 19.8798C45.0078 19.8798 45.6981 19.9716 46.2782 20.1449L46.0393 21.7197C45.496 21.5202 44.8871 21.4152 44.2781 21.4152C42.6088 21.4152 41.7873 22.6725 41.7873 24.4205C41.7873 26.355 42.5957 27.439 44.3962 27.439C44.9396 27.439 45.6272 27.2946 46.0918 27.0689L46.3569 28.5912C45.6981 28.8432 44.8634 29.0033 44.0288 29.0033Z" fill="#201751"/>
<path d="M53.4048 28.8983V25.0163H49.6173V28.8957H47.8955V19.9585H49.6173V23.5334H53.4048V19.9585H55.1266V28.8957H53.4048V28.8983Z" fill="#201751"/>
<path d="M62.4333 28.8983L61.8112 27.0714H58.4332L57.8111 28.8983H56.0762L59.2022 19.9611H61.1498L64.3414 28.8983H62.4333ZM60.4883 23.1632C60.3282 22.7275 60.2101 22.3154 60.1183 21.9322H60.1051C59.9975 22.3154 59.8925 22.7275 59.7482 23.1632L58.861 25.7066H61.3781L60.4883 23.1632Z" fill="#201751"/>
<path d="M69.5569 28.8983L67.1474 25.2027H67.0031V28.8983H65.2812V19.9585C65.9821 19.9191 66.8167 19.906 67.8509 19.906C69.8247 19.906 71.095 20.5937 71.095 22.4231C71.095 23.7486 70.1422 24.7014 68.8981 24.914C69.137 25.2447 69.4021 25.5754 69.6121 25.893L71.6908 28.8983H69.5569ZM67.6776 21.3102C67.4257 21.3102 67.1737 21.3234 67.0031 21.3496V23.9323C67.1238 23.9455 67.36 23.9586 67.6251 23.9586C68.6566 23.9586 69.2945 23.4284 69.2945 22.5937C69.2918 21.7328 68.7643 21.3102 67.6776 21.3102Z" fill="#201751"/>
<path d="M72.8672 28.8983V19.9585H74.589V28.8957H72.8672V28.8983Z" fill="#201751"/>
<path d="M79.6752 21.4283V28.8957H77.9534V21.4283H75.6357V19.9585H81.9928V21.4283H79.6752Z" fill="#201751"/>
<path d="M86.7466 25.7329V28.8983H85.0248V25.746L82.2295 19.9585H84.1114L85.2899 22.5281C85.5288 23.0583 85.7256 23.5465 85.8989 24.0111H85.9251C86.1115 23.494 86.3766 22.9244 86.639 22.3549L87.765 19.9585H89.5919L86.7466 25.7329Z" fill="#201751"/>
<path d="M98.8756 28.8983L98.2536 27.0714H94.8756L94.2535 28.8983H92.5186L95.6446 19.9611H97.5922L100.784 28.8983H98.8756ZM96.9281 23.1632C96.768 22.7275 96.6499 22.3154 96.558 21.9322H96.5449C96.4399 22.3154 96.3323 22.7275 96.1879 23.1632L95.3008 25.7066H97.8179L96.9281 23.1632Z" fill="#201751"/>
<path d="M103.482 29.0427C102.687 29.0427 102.012 28.964 101.416 28.8038L101.603 27.1476C102.185 27.3865 102.834 27.5308 103.55 27.5308C104.359 27.5308 105.046 27.2001 105.046 26.3655C105.046 24.6568 101.285 25.4389 101.285 22.4992C101.285 20.9113 102.503 19.8115 104.663 19.8115C105.154 19.8115 105.776 19.8771 106.277 19.9848L106.117 21.494C105.626 21.3339 105.112 21.242 104.582 21.242C103.577 21.242 103.112 21.6777 103.112 22.3155C103.112 23.9166 106.939 23.3208 106.939 26.1555C106.939 27.8117 105.548 29.0427 103.482 29.0427Z" fill="#201751"/>
<path d="M110.143 29.0427C109.348 29.0427 108.673 28.964 108.078 28.8038L108.264 27.1476C108.847 27.3865 109.495 27.5308 110.211 27.5308C111.02 27.5308 111.708 27.2001 111.708 26.3655C111.708 24.6568 107.946 25.4389 107.946 22.4992C107.946 20.9113 109.164 19.8115 111.324 19.8115C111.815 19.8115 112.437 19.8771 112.939 19.9848L112.778 21.494C112.288 21.3339 111.773 21.242 111.243 21.242C110.238 21.242 109.773 21.6777 109.773 22.3155C109.773 23.9166 113.6 23.3208 113.6 26.1555C113.6 27.8117 112.209 29.0427 110.143 29.0427Z" fill="#201751"/>
<path d="M118.576 29.0428C115.849 29.0428 114.511 27.3078 114.511 24.5413C114.511 21.5885 116.485 19.8142 118.881 19.8142C121.264 19.8142 122.947 21.2447 122.947 24.3025C122.947 27.2553 121.002 29.0428 118.576 29.0428ZM118.723 21.3628C117.492 21.3628 116.353 22.3418 116.353 24.355C116.353 26.2474 117.096 27.481 118.697 27.481C119.863 27.481 121.107 26.5808 121.107 24.4364C121.107 22.4494 120.259 21.3628 118.723 21.3628Z" fill="#201751"/>
<path d="M128.018 29.0033C124.892 29.0033 123.887 26.9377 123.887 24.7119C123.887 21.8772 125.37 19.8798 128.362 19.8798C128.997 19.8798 129.687 19.9716 130.27 20.1449L130.031 21.7197C129.488 21.5202 128.879 21.4152 128.27 21.4152C126.601 21.4152 125.782 22.6725 125.782 24.4205C125.782 26.355 126.59 27.439 128.391 27.439C128.934 27.439 129.622 27.2946 130.086 27.0689L130.351 28.5912C129.687 28.8432 128.853 29.0033 128.018 29.0033Z" fill="#201751"/>
<path d="M131.884 28.8983V19.9585H133.606V28.8957H131.884V28.8983Z" fill="#201751"/>
<path d="M140.902 28.8983L140.28 27.0714H136.905L136.283 28.8983H134.548L137.674 19.9611H139.621L142.813 28.8983H140.902ZM138.957 23.1632C138.797 22.7275 138.679 22.3154 138.587 21.9322H138.574C138.469 22.3154 138.362 22.7275 138.217 23.1632L137.33 25.7066H139.847L138.957 23.1632Z" fill="#201751"/>
<path d="M146.094 21.4283V28.8957H144.372V21.4283H142.055V19.9585H148.412V21.4283H146.094Z" fill="#201751"/>
<path d="M149.404 28.8983V19.9585H151.126V28.8957H149.404V28.8983Z" fill="#201751"/>
<path d="M156.554 29.0428C153.827 29.0428 152.488 27.3078 152.488 24.5413C152.488 21.5885 154.462 19.8142 156.858 19.8142C159.242 19.8142 160.924 21.2447 160.924 24.3025C160.924 27.2553 158.977 29.0428 156.554 29.0428ZM156.701 21.3628C155.47 21.3628 154.331 22.3418 154.331 24.355C154.331 26.2474 155.074 27.481 156.675 27.481C157.84 27.481 159.084 26.5808 159.084 24.4364C159.084 22.4494 158.236 21.3628 156.701 21.3628Z" fill="#201751"/>
<path d="M167.465 28.8983L164.843 24.3838C164.459 23.7092 164.142 23.0452 163.877 22.4625C163.929 23.2315 163.955 24.6331 163.955 25.7067V28.8983H162.286V19.9585H164.525L167.016 24.2211C167.425 24.9087 167.785 25.6515 168.116 26.3261C168.05 25.4258 168.024 23.8352 168.024 22.7381V19.9585H169.693V28.8957H167.465V28.8983Z" fill="#201751"/>
<path d="M3.70874 9.75353C1.23625 9.75353 0 8.68526 0 6.54611C0 5.56446 0.291345 4.75867 0.876659 4.12873C1.53547 3.42531 2.46462 3.07622 3.66675 3.07622C4.75076 3.07622 5.71666 3.23633 6.55657 3.55654V8.3178H7.90831V9.75615H3.70874V9.75353ZM1.6877 1.92396C1.51184 1.74285 1.42523 1.52238 1.42523 1.26253C1.42523 1.00268 1.51184 0.779579 1.6877 0.593223C1.86881 0.409492 2.08403 0.317627 2.33601 0.317627C2.59586 0.317627 2.81896 0.409492 2.99744 0.593223C3.1733 0.77433 3.25991 0.997432 3.25991 1.26253C3.25991 1.51975 3.1733 1.74023 2.99744 1.92396C2.81896 2.11032 2.59848 2.20218 2.33601 2.20218C2.08141 2.20218 1.86356 2.11032 1.6877 1.92396ZM4.78751 4.76129C4.43579 4.59331 3.99746 4.51194 3.46989 4.51194C2.96069 4.51194 2.55911 4.6878 2.25989 5.03951C1.96592 5.38073 1.82156 5.82693 1.82156 6.37813C1.82156 7.66949 2.51449 8.3178 3.90297 8.3178H4.78751V4.76129ZM3.98434 1.92396C3.80848 1.74285 3.72187 1.52238 3.72187 1.26253C3.72187 1.00268 3.81111 0.779579 3.98434 0.593223C4.16544 0.409492 4.38067 0.317627 4.63265 0.317627C4.88987 0.317627 5.1051 0.409492 5.28095 0.593223C5.45681 0.77433 5.54343 0.997432 5.54343 1.26253C5.54343 1.51975 5.45681 1.74023 5.28095 1.92396C5.1051 2.10769 4.88987 2.19956 4.63265 2.19956C4.37542 2.19956 4.1602 2.11032 3.98434 1.92396Z" fill="#201751"/>
<path d="M7.70605 8.31519H11.7796V9.75354H7.70605V8.31519Z" fill="#201751"/>
<path d="M11.625 8.31519H15.696V9.75354H11.625V8.31519Z" fill="#201751"/>
<path d="M15.541 8.31519H19.6146V9.75354H15.541V8.31519Z" fill="#201751"/>
<path d="M19.46 8.31519H23.5335V9.75354H19.46V8.31519Z" fill="#201751"/>
<path d="M23.376 8.31519H27.4496V9.75354H23.376V8.31519Z" fill="#201751"/>
<path d="M27.2949 8.31512H29.896V3.24939H31.7202V9.75347H27.2975V8.31512H27.2949ZM29.1322 12.4884C28.9511 12.6722 28.7306 12.7667 28.4708 12.7667C28.2136 12.7667 27.9983 12.6774 27.8225 12.4963C27.6466 12.3152 27.56 12.0921 27.56 11.827C27.56 11.5698 27.6493 11.3493 27.8225 11.1656C28.0036 10.9818 28.2188 10.89 28.4708 10.89C28.7333 10.89 28.9538 10.9792 29.1322 11.1603C29.3081 11.3441 29.3947 11.5672 29.3947 11.8296C29.3947 12.0869 29.3081 12.3073 29.1322 12.4884ZM31.4157 12.4884C31.2346 12.6722 31.0194 12.7667 30.7674 12.7667C30.5102 12.7667 30.295 12.6774 30.1191 12.4963C29.9433 12.3152 29.8567 12.0921 29.8567 11.827C29.8567 11.5698 29.9433 11.3493 30.1191 11.1656C30.3002 10.9818 30.5155 10.89 30.7674 10.89C31.0247 10.89 31.2399 10.9792 31.4157 11.1603C31.5916 11.3441 31.6782 11.5672 31.6782 11.8296C31.6782 12.0842 31.5916 12.3047 31.4157 12.4884Z" fill="#201751"/>
<path d="M37.211 9.75347V9.80859C37.211 12.1131 36.0719 13.268 33.7936 13.268C33.3894 13.268 33.0009 13.2234 32.6309 13.1315L32.7647 11.68C33.1479 11.7876 33.5206 11.8428 33.8855 11.8428C34.3868 11.8428 34.7516 11.7063 34.9879 11.4385C35.253 11.1315 35.3868 10.6223 35.3868 9.91095V3.24939H37.211V8.31512H40.7439V3.24939H42.5681V8.31512H43.9251V9.75347H37.211ZM39.9801 12.4884C39.799 12.6722 39.5785 12.7667 39.3187 12.7667C39.0614 12.7667 38.8462 12.6774 38.6704 12.4963C38.4945 12.3152 38.4079 12.0921 38.4079 11.827C38.4079 11.5698 38.4945 11.3493 38.6704 11.1656C38.8515 10.9818 39.0667 10.89 39.3187 10.89C39.5785 10.89 39.8016 10.9792 39.9801 11.1603C40.156 11.3441 40.2426 11.5672 40.2426 11.8296C40.2426 12.0869 40.156 12.3073 39.9801 12.4884ZM42.2636 12.4884C42.0825 12.6722 41.8673 12.7667 41.6153 12.7667C41.3581 12.7667 41.1429 12.6774 40.967 12.4963C40.7911 12.3152 40.7045 12.0921 40.7045 11.827C40.7045 11.5698 40.7911 11.3493 40.967 11.1656C41.1481 10.9818 41.3633 10.89 41.6153 10.89C41.8725 10.89 42.0878 10.9792 42.2636 11.1603C42.4395 11.3441 42.5261 11.5672 42.5261 11.8296C42.5261 12.0842 42.4368 12.3047 42.2636 12.4884Z" fill="#201751"/>
<path d="M43.749 8.31507H49.1061C49.1507 7.94498 49.1743 7.59589 49.1743 7.26255C49.1743 6.36227 48.9722 5.70084 48.568 5.27563C48.1349 4.82943 47.4341 4.60632 46.4604 4.60632C45.9459 4.60632 45.4184 4.64569 44.8724 4.72181V3.29658C45.5207 3.21259 46.1113 3.16797 46.6415 3.16797C48.1691 3.16797 49.2793 3.50919 49.9775 4.18637C50.6494 4.83467 50.9828 5.83732 50.9828 7.19168C50.9828 7.58277 50.9644 7.9581 50.9277 8.31244H52.009V9.75079H43.749V8.31507ZM46.3554 1.81624C46.1664 1.63251 46.0719 1.40415 46.0719 1.13381C46.0719 0.873959 46.1664 0.648232 46.3554 0.459252C46.5391 0.275521 46.7622 0.18103 47.0247 0.18103C47.2898 0.18103 47.5155 0.272896 47.6992 0.459252C47.8882 0.648232 47.9827 0.873959 47.9827 1.13381C47.9827 1.39628 47.8882 1.61938 47.6992 1.80836C47.5155 1.99209 47.2898 2.08658 47.0247 2.08658C46.7622 2.08658 46.5391 1.99734 46.3554 1.81624Z" fill="#201751"/>
<path d="M51.7939 8.31514H53.5105V0H55.3347V9.75349H51.7966V8.31514H51.7939Z" fill="#201751"/>
<path d="M57.6836 0H59.5078V9.75349H57.6836V0Z" fill="#201751"/>
<path d="M69.1511 9.75342C67.3453 9.75342 66.0277 9.38596 65.2009 8.65104C64.4476 7.9896 64.0723 6.99221 64.0723 5.65884C64.0723 4.86618 64.1904 4.14175 64.4292 3.48294L66.382 3.16535C66.0671 3.85303 65.9096 4.6142 65.9096 5.44887C65.9096 6.45414 66.1589 7.17331 66.6602 7.60902C67.1878 8.07622 68.0802 8.31245 69.3427 8.31245H70.2876V3.33596C71.1433 3.1601 72.0698 3.07349 73.0646 3.07349C74.2273 3.07349 75.0646 3.34646 75.5765 3.88978C76.0305 4.37535 76.2589 5.12077 76.2589 6.12605V8.31507H77.4216V9.75342H74.4898V6.3229C74.4898 5.65622 74.377 5.18902 74.1512 4.91867C73.9255 4.64832 73.5265 4.51446 72.9544 4.51446C72.6473 4.51446 72.3428 4.54071 72.0436 4.59583V9.75605H69.1511V9.75342ZM68.3138 12.4884C68.1327 12.6721 67.9122 12.7666 67.6524 12.7666C67.4004 12.7666 67.1852 12.6774 67.0041 12.4963C66.8282 12.3152 66.7416 12.0921 66.7416 11.827C66.7416 11.5697 66.8309 11.3493 67.0041 11.1655C67.1852 10.9818 67.4004 10.8899 67.6524 10.8899C67.9175 10.8899 68.138 10.9792 68.3138 11.1603C68.4949 11.344 68.5842 11.5671 68.5842 11.8296C68.5842 12.0868 68.4949 12.3073 68.3138 12.4884ZM70.5973 12.4884C70.4215 12.6721 70.2063 12.7666 69.949 12.7666C69.6971 12.7666 69.4818 12.6774 69.3007 12.4963C69.1249 12.3152 69.0383 12.0921 69.0383 11.827C69.0383 11.5697 69.1249 11.3493 69.3007 11.1655C69.4818 10.9818 69.6971 10.8899 69.949 10.8899C70.2063 10.8899 70.4215 10.9792 70.5973 11.1603C70.7784 11.344 70.8677 11.5671 70.8677 11.8296C70.8677 12.0842 70.7758 12.3047 70.5973 12.4884Z" fill="#201751"/>
<path d="M77.2168 8.31519H81.2904V9.75354H77.2168V8.31519Z" fill="#201751"/>
<path d="M81.1328 8.31519H85.2064V9.75354H81.1328V8.31519Z" fill="#201751"/>
<path d="M85.0518 8.31519H89.1253V9.75354H85.0518V8.31519Z" fill="#201751"/>
<path d="M88.9678 8.31519H93.0414V9.75354H88.9678V8.31519Z" fill="#201751"/>
<path d="M92.8867 8.31519H96.9603V9.75354H92.8867V8.31519Z" fill="#201751"/>
<path d="M96.8057 8.31512H98.7453V3.24939H100.57V9.75347H96.8083V8.31512H96.8057ZM97.9527 12.5094C97.7689 12.3257 97.6744 12.0974 97.6744 11.827C97.6744 11.5645 97.7663 11.3414 97.9527 11.1524C98.1416 10.9687 98.3674 10.8742 98.6272 10.8742C98.8923 10.8742 99.118 10.9661 99.3018 11.1524C99.4908 11.3362 99.5853 11.5619 99.5853 11.827C99.5853 12.0921 99.4908 12.3178 99.3018 12.5016C99.118 12.6905 98.8923 12.785 98.6272 12.785C98.3674 12.785 98.1416 12.6932 97.9527 12.5094Z" fill="#201751"/>
<path d="M102.22 8.31508H106.327C106.246 6.26517 105.159 4.97643 103.065 4.44361L103.503 2.91602C105.052 3.32547 106.196 3.98166 106.934 4.88719C107.719 5.85046 108.11 7.16808 108.11 8.8374V9.74818H102.22V8.31508Z" fill="#201751"/>
<path d="M115.724 9.75353C113.252 9.75353 112.016 8.68526 112.016 6.54611C112.016 5.56446 112.31 4.75867 112.895 4.12873C113.551 3.42531 114.483 3.07622 115.685 3.07622C116.769 3.07622 117.732 3.23633 118.575 3.55654V8.3178H119.927V9.75615H115.724V9.75353ZM113.703 1.92396C113.527 1.74285 113.441 1.52238 113.441 1.26253C113.441 1.00268 113.527 0.779579 113.703 0.593223C113.884 0.409492 114.1 0.317627 114.352 0.317627C114.611 0.317627 114.832 0.409492 115.013 0.593223C115.189 0.77433 115.276 0.997432 115.276 1.26253C115.276 1.51975 115.189 1.74023 115.013 1.92396C114.832 2.10769 114.611 2.19956 114.352 2.19956C114.094 2.20218 113.879 2.11032 113.703 1.92396ZM116.803 4.76129C116.451 4.59331 116.013 4.51194 115.486 4.51194C114.976 4.51194 114.575 4.6878 114.276 5.03951C113.982 5.38073 113.837 5.82693 113.837 6.37813C113.837 7.66949 114.53 8.3178 115.919 8.3178H116.803V4.76129ZM116 1.92396C115.824 1.74285 115.737 1.52238 115.737 1.26253C115.737 1.00268 115.827 0.779579 116 0.593223C116.181 0.409492 116.396 0.317627 116.648 0.317627C116.906 0.317627 117.121 0.409492 117.297 0.593223C117.472 0.77433 117.559 0.997432 117.559 1.26253C117.559 1.51975 117.47 1.74023 117.297 1.92396C117.121 2.10769 116.906 2.19956 116.648 2.19956C116.391 2.20218 116.176 2.11032 116 1.92396Z" fill="#201751"/>
<path d="M119.722 8.31519H123.795V9.75354H119.722V8.31519Z" fill="#201751"/>
<path d="M123.641 8.31519H127.714V9.75354H123.641V8.31519Z" fill="#201751"/>
<path d="M127.557 8.31519H131.63V9.75354H127.557V8.31519Z" fill="#201751"/>
<path d="M131.476 8.31519H135.549V9.75354H131.476V8.31519Z" fill="#201751"/>
<path d="M135.392 8.31519H139.465V9.75354H135.392V8.31519Z" fill="#201751"/>
<path d="M139.31 8.31512H141.249V3.24939H143.073V8.31512H144.958V9.75347H139.312V8.31512H139.31ZM141.147 12.4884C140.966 12.6722 140.745 12.7667 140.485 12.7667C140.228 12.7667 140.013 12.6774 139.837 12.4963C139.661 12.3152 139.575 12.0921 139.575 11.827C139.575 11.5698 139.664 11.3493 139.837 11.1656C140.018 10.9818 140.233 10.89 140.485 10.89C140.745 10.89 140.968 10.9792 141.147 11.1603C141.323 11.3441 141.409 11.5672 141.409 11.8296C141.409 12.0869 141.323 12.3073 141.147 12.4884ZM143.43 12.4884C143.249 12.6722 143.034 12.7667 142.782 12.7667C142.525 12.7667 142.31 12.6774 142.134 12.4963C141.958 12.3152 141.871 12.0921 141.871 11.827C141.871 11.5698 141.958 11.3493 142.134 11.1656C142.315 10.9818 142.53 10.89 142.782 10.89C143.039 10.89 143.255 10.9792 143.43 11.1603C143.606 11.3441 143.693 11.5672 143.693 11.8296C143.693 12.0842 143.604 12.3047 143.43 12.4884Z" fill="#201751"/>
<path d="M144.74 8.31513H145.226C146.501 8.31513 147.575 8.1734 148.446 7.88993C147.218 6.73767 146.249 6.06312 145.543 5.87151L145.693 4.56702C147.11 3.546 148.444 3.03418 149.69 3.03418C150.664 3.03418 151.407 3.26253 151.927 3.71661C152.381 4.12082 152.609 4.65101 152.609 5.30457C152.609 6.28622 152.139 7.17075 151.197 7.95817C151.693 8.19702 152.205 8.31513 152.738 8.31513H153.649V9.75349H152.528C151.488 9.75349 150.538 9.46739 149.677 8.8952C148.399 9.46739 146.877 9.75349 145.11 9.75349H144.74V8.31513ZM149.94 7.11301C150.512 6.66156 150.798 6.13661 150.798 5.53292C150.798 5.19171 150.69 4.91611 150.475 4.70876C150.242 4.48303 149.911 4.37017 149.483 4.37017C148.911 4.37017 148.21 4.64576 147.383 5.20221C147.74 5.34394 148.593 5.98175 149.94 7.11301Z" fill="#201751"/>
<path d="M158.676 9.75348C157.185 9.75348 156.151 9.39389 155.576 8.67209C155.298 9.39127 154.566 9.75348 153.382 9.75348H153.172V8.31513C153.713 8.31513 154.112 8.18127 154.369 7.91617C154.652 7.6222 154.794 7.12875 154.794 6.43058C154.794 5.49355 155.091 4.714 155.686 4.09457C156.343 3.41476 157.243 3.07617 158.387 3.07617C160.471 3.07617 161.516 4.13656 161.516 6.25734V8.31776H162.679V9.75611H158.676V9.75348ZM159.728 6.47782C159.728 5.16808 159.235 4.5119 158.248 4.5119C157.739 4.5119 157.335 4.68776 157.033 5.03947C156.744 5.38068 156.6 5.82689 156.6 6.37808C156.6 7.66945 157.29 8.31776 158.673 8.31776H159.726V6.47782H159.728Z" fill="#201751"/>
<path d="M162.458 8.31518H167.815C167.859 7.9451 167.883 7.59601 167.883 7.26267C167.883 6.36239 167.681 5.70095 167.274 5.27575C166.841 4.82954 166.14 4.60644 165.166 4.60644C164.652 4.60644 164.124 4.64581 163.578 4.72193V3.2967C164.227 3.21271 164.817 3.16809 165.348 3.16809C166.875 3.16809 167.985 3.50931 168.684 4.18649C169.355 4.83479 169.689 5.83744 169.689 7.1918C169.689 7.95822 169.61 8.81126 169.453 9.75091H162.455V8.31518H162.458ZM165.064 12.5095C164.875 12.3258 164.781 12.0974 164.781 11.8271C164.781 11.5646 164.875 11.3415 165.064 11.1525C165.248 10.9688 165.471 10.8743 165.733 10.8743C165.998 10.8743 166.224 10.9662 166.408 11.1525C166.597 11.3362 166.691 11.562 166.691 11.8271C166.691 12.0922 166.597 12.3179 166.408 12.5016C166.224 12.6906 165.998 12.7851 165.733 12.7851C165.471 12.7851 165.248 12.6932 165.064 12.5095Z" fill="#201751"/>
<defs>
<linearGradient id="paint0_linear_194_16717" x1="205.014" y1="3.77437" x2="225.214" y2="3.77437" gradientUnits="userSpaceOnUse">
<stop offset="1.99513e-07" stop-color="#201751"/>
<stop offset="1" stop-color="#201751" stop-opacity="0"/>
</linearGradient>
<linearGradient id="paint1_linear_194_16717" x1="213.149" y1="25.409" x2="227.286" y2="25.409" gradientUnits="userSpaceOnUse">
<stop offset="1.99513e-07" stop-color="#201751"/>
<stop offset="1" stop-color="#201751" stop-opacity="0"/>
</linearGradient>
<linearGradient id="paint2_linear_194_16717" x1="184.279" y1="25.4286" x2="197.275" y2="25.4286" gradientUnits="userSpaceOnUse">
<stop offset="1.99513e-07" stop-color="#201751"/>
<stop offset="1" stop-color="#201751" stop-opacity="0"/>
</linearGradient>
</defs>
</svg>
